<?xml version="1.0" encoding="UTF-8" standalone="no"?>
<!-- Created with Inkscape (http://www.inkscape.org/) -->

<svg
   width="76.591934mm"
   height="11.106199mm"
   viewBox="0 0 76.591934 11.106199"
   version="1.1"
   id="svg1"
   xml:space="preserve"
   inkscape:version="1.3.1 (9b9bdc1480, 2023-11-25, custom)"
   sodipodi:docname="Carrier.svg"
   xmlns:inkscape="http://www.inkscape.org/namespaces/inkscape"
   xmlns:sodipodi="http://sodipodi.sourceforge.net/DTD/sodipodi-0.dtd"
   xmlns="http://www.w3.org/2000/svg"
   xmlns:svg="http://www.w3.org/2000/svg"><sodipodi:namedview
     id="namedview1"
     pagecolor="#ffffff"
     bordercolor="#000000"
     borderopacity="0.25"
     inkscape:showpageshadow="2"
     inkscape:pageopacity="0.0"
     inkscape:pagecheckerboard="0"
     inkscape:deskcolor="#d1d1d1"
     inkscape:document-units="mm"
     inkscape:zoom="0.96160121"
     inkscape:cx="-70.715385"
     inkscape:cy="50.436709"
     inkscape:window-width="1920"
     inkscape:window-height="1043"
     inkscape:window-x="2560"
     inkscape:window-y="0"
     inkscape:window-maximized="1"
     inkscape:current-layer="layer1" /><defs
     id="defs1" /><g
     inkscape:label="Layer 1"
     inkscape:groupmode="layer"
     id="layer1"
     transform="translate(-65.235162,-109.4797)"><path
       style="fill:#000000"
       d="m 67.158592,120.19527 c -0.08376,-0.21828 -0.316173,-0.39687 -0.516467,-0.39687 -0.200295,0 -0.56409,-0.22091 -0.808433,-0.49091 -0.565559,-0.62493 -0.302434,-1.43985 0.39358,-1.21894 0.27514,0.0873 0.497833,0.0317 0.497833,-0.12441 0,-0.15532 -0.284917,-0.28241 -0.63315,-0.28241 -0.669645,0 -1.174282,-0.74416 -0.61916,-0.91304 0.179448,-0.0546 4.695007,-0.0799 10.034577,-0.0561 9.561855,0.0425 9.707535,0.0352 9.657295,-0.48604 -0.0526,-0.54584 0.2036,-0.59384 1.33804,-0.25066 0.55469,0.1678 0.59532,0.10034 0.59532,-0.98848 0,-0.64271 -0.14288,-1.31144 -0.3175,-1.48607 -0.24695,-0.24694 -0.22654,-0.3175 0.0919,-0.3175 0.22514,0 0.53855,-0.26789 0.69646,-0.59531 l 0.28711,-0.59531 0.0179,0.59531 c 0.01,0.32742 0.10721,0.5951 0.21635,0.59483 0.10914,-2.6e-4 0.15922,0.69169 0.1113,1.53769 -0.10278,1.81433 0.2406,2.27948 1.27776,1.73089 0.3638,-0.19244 0.51263,-0.35163 0.33073,-0.35378 -0.2042,-0.002 -0.31556,-0.33287 -0.29109,-0.8638 0.0369,-0.80034 0.0473,-0.8095 0.14987,-0.13229 0.0606,0.40019 0.21023,0.72761 0.33246,0.72761 0.12223,0 0.15997,-0.23813 0.0839,-0.52917 -0.13344,-0.51026 0.1042,-0.65365 0.9113,-0.54989 0.19145,0.0246 0.26182,-0.12658 0.17013,-0.36552 -0.10517,-0.27408 0.005,-0.41347 0.33495,-0.42574 0.27024,-0.01 0.84299,-0.064 1.2728,-0.11998 0.42981,-0.056 0.93061,0.022 1.11289,0.1733 0.18228,0.15128 0.4557,0.19824 0.60759,0.10437 0.50251,-0.31057 0.28676,-0.92047 -0.38528,-1.08914 -0.3638,-0.0913 -0.66146,-0.27444 -0.66146,-0.40696 0,-0.13251 0.29766,-0.16623 0.66146,-0.0749 0.58506,0.14684 0.66146,0.0822 0.66146,-0.55924 0,-0.41791 -0.24673,-0.93924 -0.58222,-1.23021 l -0.58221,-0.50495 0.57924,-0.15147 c 0.31858,-0.0833 0.51402,-0.257 0.43431,-0.38598 -0.0797,-0.12898 0.037,-0.2345 0.25925,-0.2345 0.25534,0 0.34657,0.15013 0.24774,0.40769 -0.0861,0.22423 -0.0525,0.38873 0.0744,0.36554 0.78087,-0.14255 0.85864,0.0644 0.35867,0.95461 -0.68787,1.22469 -0.66294,1.40021 0.17613,1.23981 0.48373,-0.0925 0.6428,-0.0401 0.51355,0.16899 -0.10297,0.16662 -0.36707,0.30294 -0.58689,0.30294 -0.25976,0 -0.37006,0.20114 -0.31511,0.57459 0.10992,0.747 0.746,0.96598 0.746,0.25682 0,-0.29458 0.11907,-0.60918 0.26459,-0.69912 0.14552,-0.0899 0.26458,0.0962 0.26458,0.41366 0,0.43979 0.0808,0.51009 0.3396,0.29533 0.21529,-0.17867 0.48164,-0.19201 0.72761,-0.0365 0.33872,0.21424 0.3376,0.24643 -0.009,0.2535 -0.28099,0.006 -0.30503,0.0665 -0.0823,0.20811 0.23715,0.15078 0.21185,0.41204 -0.1028,1.06172 -0.22954,0.47395 -0.3418,0.93728 -0.24947,1.02961 0.0923,0.0923 2.01671,0.22407 4.276383,0.29275 2.25968,0.0687 4.17238,0.22823 4.25046,0.35456 0.0781,0.12633 0.38046,0.10204 0.67198,-0.054 0.3589,-0.19208 0.6342,-0.1972 0.85271,-0.0159 0.20522,0.17031 0.46393,0.177 0.71069,0.0184 0.28189,-0.18123 0.30401,-0.304 0.0809,-0.44891 -0.21022,-0.13653 -0.24169,-0.55722 -0.0998,-1.3334 0.22865,-1.25039 0.46519,-1.65009 0.64192,-1.0847 0.0634,0.20273 0.24851,0.78407 0.41143,1.29186 0.20059,0.62523 0.20811,0.95264 0.0233,1.01424 -0.97266,0.32422 0.41166,0.44917 5.41661,0.48889 l 5.68756,0.0451 0.05,-1.63265 0.05,-1.63264 0.0955,1.52135 c 0.0679,1.08228 0.20238,1.52136 0.46593,1.52136 0.26355,0 0.39802,-0.43908 0.46593,-1.52136 l 0.0955,-1.52135 0.05,1.62585 0.05,1.62586 1.07811,0.10281 c 0.59296,0.0565 1.14108,9.3e-4 1.21804,-0.1236 0.077,-0.12452 0.63361,-0.19761 1.237,-0.16241 0.60338,0.0352 1.57331,0.0402 2.15539,0.0111 0.83287,-0.0417 0.96337,-0.10834 0.61256,-0.31298 -0.41441,-0.24174 -0.41576,-0.3481 -0.0191,-1.51218 l 0.42666,-1.25216 0.33791,0.79263 c 0.43629,1.02337 0.44948,1.90377 0.0311,2.07261 -0.1819,0.0734 0.46672,0.14285 1.44138,0.15434 l 1.77211,0.0209 0.0972,-1.38907 0.0972,-1.38906 0.0489,1.38906 0.0489,1.38907 h 1.70597 1.70596 l 0.0972,-1.38907 0.0972,-1.38906 0.0489,1.38906 0.0489,1.38907 2.71198,0.004 c 1.49159,0.002 2.89057,0.11947 3.10885,0.26053 0.32949,0.21293 0.30703,0.2586 -0.13229,0.26895 -0.8088,0.019 -1.49294,0.64777 -1.28749,1.18317 0.14294,0.37248 0.0727,0.42794 -0.36596,0.28873 -0.44526,-0.14132 -0.63086,0.0185 -1.03221,0.88868 l -0.48934,1.06099 -35.492,0.007 c -31.308598,0.006 -35.509965,-0.0399 -35.644309,-0.39005 z m 61.413608,-4.42956 c -0.10369,-0.31106 -0.55925,-0.31106 -0.66293,0 -0.0441,0.13218 0.1051,0.24033 0.33146,0.24033 0.22637,0 0.37553,-0.10815 0.33147,-0.24033 z m 7.79971,-0.20065 c 0,-0.50932 0.0545,-0.71768 0.121,-0.46302 0.0666,0.25466 0.0666,0.67138 0,0.92604 -0.0665,0.25467 -0.121,0.0463 -0.121,-0.46302 z"
       id="path1" /></g></svg>
