<?xml version="1.0" encoding="UTF-8" standalone="no"?>
<!-- Created with Inkscape (http://www.inkscape.org/) -->

<svg
   width="39.271885mm"
   height="7.2414784mm"
   viewBox="0 0 39.271885 7.2414784"
   version="1.1"
   id="svg1"
   xml:space="preserve"
   inkscape:version="1.3.1 (9b9bdc1480, 2023-11-25, custom)"
   sodipodi:docname="Submarine.svg"
   xmlns:inkscape="http://www.inkscape.org/namespaces/inkscape"
   xmlns:sodipodi="http://sodipodi.sourceforge.net/DTD/sodipodi-0.dtd"
   xmlns="http://www.w3.org/2000/svg"
   xmlns:svg="http://www.w3.org/2000/svg"><sodipodi:namedview
     id="namedview1"
     pagecolor="#ffffff"
     bordercolor="#000000"
     borderopacity="0.25"
     inkscape:showpageshadow="2"
     inkscape:pageopacity="0.0"
     inkscape:pagecheckerboard="0"
     inkscape:deskcolor="#d1d1d1"
     inkscape:document-units="mm"
     inkscape:zoom="3.0055681"
     inkscape:cx="83.178952"
     inkscape:cy="131.92182"
     inkscape:window-width="1920"
     inkscape:window-height="1043"
     inkscape:window-x="2560"
     inkscape:window-y="0"
     inkscape:window-maximized="1"
     inkscape:current-layer="layer1" /><defs
     id="defs1" /><g
     inkscape:label="Layer 1"
     inkscape:groupmode="layer"
     id="layer1"
     transform="translate(-83.566185,-115.52727)"><path
       style="fill:#000000"
       d="m 84.460313,122.25206 c -0.254661,-0.27891 -0.380733,-0.50712 -0.280159,-0.50712 0.100574,0 -0.04825,-0.1748 -0.330729,-0.38846 -0.289302,-0.21881 -0.369159,-0.39213 -0.182862,-0.39687 0.181901,-0.005 0.33073,-0.18701 0.33073,-0.40529 0,-0.21828 0.178593,-0.39688 0.396875,-0.39688 0.220486,0 0.396875,-0.23518 0.396875,-0.52916 0,-0.79614 1.000141,-0.68179 1.382822,0.15811 0.27717,0.60832 0.420893,0.66806 1.251098,0.52002 0.515875,-0.092 2.188111,-0.23806 3.71608,-0.3246 1.527968,-0.0865 3.099634,-0.32056 3.49259,-0.52003 0.553883,-0.28116 2.355857,-0.36267 8.017407,-0.36267 h 7.30295 l 0.2767,-0.79375 c 0.20389,-0.58487 0.44396,-0.79375 0.91228,-0.79375 0.51215,0 0.63557,-0.13701 0.63557,-0.70556 0,-0.62813 0.34606,-0.68137 0.42995,-0.0661 0.0182,0.13339 0.048,0.3616 0.0661,0.50712 0.0182,0.14552 0.15213,0.26458 0.29765,0.26458 0.14553,0 0.28148,-0.44648 0.30213,-0.99219 l 0.0375,-0.99219 0.16089,1.00095 c 0.0885,0.55053 0.25019,0.99701 0.35933,0.99219 0.92642,-0.0409 0.99219,0.0269 0.99219,1.023 v 1.03177 l 3.37344,0.0984 c 3.49333,0.10193 4.87267,0.46005 5.03587,1.30748 0.0448,0.23248 -0.25143,0.64829 -0.65823,0.92402 -0.701,0.47515 -1.52733,0.50541 -15.8228,0.57943 -11.594943,0.06 -15.648464,-0.004 -17.527532,-0.27805 -2.298189,-0.33485 -2.453411,-0.32765 -2.595598,0.12034 -0.197091,0.62098 -1.171585,0.57982 -1.769217,-0.0747 z"
       id="path1" /></g></svg>
