<?xml version="1.0" encoding="UTF-8" standalone="no"?>
<!-- Created with Inkscape (http://www.inkscape.org/) -->

<svg
   width="28.971849mm"
   height="7.1003599mm"
   viewBox="0 0 28.971849 7.1003599"
   version="1.1"
   id="svg1"
   xml:space="preserve"
   inkscape:version="1.3.1 (9b9bdc1480, 2023-11-25, custom)"
   sodipodi:docname="Destroyer.svg"
   xmlns:inkscape="http://www.inkscape.org/namespaces/inkscape"
   xmlns:sodipodi="http://sodipodi.sourceforge.net/DTD/sodipodi-0.dtd"
   xmlns="http://www.w3.org/2000/svg"
   xmlns:svg="http://www.w3.org/2000/svg"><sodipodi:namedview
     id="namedview1"
     pagecolor="#ffffff"
     bordercolor="#000000"
     borderopacity="0.25"
     inkscape:showpageshadow="2"
     inkscape:pageopacity="0.0"
     inkscape:pagecheckerboard="0"
     inkscape:deskcolor="#d1d1d1"
     inkscape:document-units="mm"
     inkscape:zoom="4.9280236"
     inkscape:cx="23.133006"
     inkscape:cy="-24.046151"
     inkscape:window-width="2490"
     inkscape:window-height="1371"
     inkscape:window-x="70"
     inkscape:window-y="32"
     inkscape:window-maximized="1"
     inkscape:current-layer="layer1" /><defs
     id="defs1" /><g
     inkscape:label="Layer 1"
     inkscape:groupmode="layer"
     id="layer1"
     transform="translate(-102.2735,-136.03193)"><path
       style="fill:#000000"
       d="m 102.7008,142.48001 c -0.23502,-0.35869 -0.4273,-0.75405 -0.4273,-0.87859 0,-0.12453 1.19062,-0.17515 2.64583,-0.11246 2.55147,0.1099 2.64583,0.0941 2.64583,-0.44434 0,-0.30706 0.11907,-0.5583 0.26459,-0.5583 0.14552,0 0.27725,-0.38695 0.29273,-0.85989 l 0.0281,-0.8599 0.28752,0.7276 c 0.27201,0.68838 1.24369,1.05013 1.24369,0.46302 0,-0.14552 0.11906,-0.26458 0.26458,-0.26458 0.14552,0 0.26459,0.1786 0.26459,0.39688 0,0.21828 0.11906,0.39687 0.26458,0.39687 0.14552,0 0.26458,-0.11906 0.26458,-0.26458 0,-0.35804 1.25413,-0.33865 1.3741,0.0212 0.0659,0.19765 0.32338,0.18189 0.83474,-0.0511 0.47648,-0.2171 0.80331,-0.24367 0.91897,-0.0747 0.35919,0.52478 1.33331,0.35989 1.44042,-0.24383 0.10012,-0.56424 0.10932,-0.56229 0.3962,0.0838 0.28667,0.64562 0.2941,0.64721 0.31047,0.0662 0.0173,-0.61444 0.39043,-0.79639 0.67823,-0.33073 0.0899,0.14552 0.26862,0.26458 0.39707,0.26458 0.36488,0 0.17998,-1.94005 -0.22525,-2.36334 -0.30758,-0.32129 -0.30446,-0.42197 0.0205,-0.66146 0.21081,-0.15537 0.45274,-0.46108 0.53762,-0.67936 0.10848,-0.27898 0.16053,-0.29302 0.17521,-0.0472 0.0115,0.1923 0.19948,0.52822 0.41776,0.7465 0.4514,0.4514 0.52054,0.88825 0.1406,0.88825 -0.14095,0 -0.18775,0.17859 -0.10398,0.39687 0.0872,0.22717 0.005,0.39688 -0.19117,0.39688 -0.238,0 -0.21293,0.10155 0.0817,0.33073 0.23382,0.1819 0.46494,0.55899 0.5136,0.83797 0.15922,0.91298 0.6729,0.73086 0.84291,-0.29884 0.1211,-0.7335 0.0582,-1.08211 -0.23451,-1.30041 -0.34268,-0.25554 -0.31579,-0.32028 0.18773,-0.45195 0.60695,-0.15872 1.47355,0.31849 1.07971,0.59456 -0.12212,0.0856 -0.14677,0.51283 -0.0548,0.9494 l 0.16726,0.79375 0.30029,-0.72761 c 0.37481,-0.90814 0.84256,-0.94486 0.84256,-0.0661 0,0.48507 0.14111,0.66145 0.52917,0.66145 0.41157,0 0.52916,0.17639 0.52916,0.79375 0,0.88052 0.49781,1.0519 1.15283,0.39688 0.44132,-0.44132 0.96384,-0.52656 0.96384,-0.15723 0,0.13735 1.38354,0.18275 3.24115,0.10636 l 3.24114,-0.13328 -1.19062,1.07298 -1.19063,1.07298 -12.86801,0.0113 -12.868,0.0113 z"
       id="path1" /></g></svg>
