<?xml version="1.0" encoding="UTF-8" standalone="no"?>
<!-- Created with Inkscape (http://www.inkscape.org/) -->

<svg
   width="52.568638mm"
   height="11.10108mm"
   viewBox="0 0 52.568638 11.10108"
   version="1.1"
   id="svg1"
   xml:space="preserve"
   inkscape:version="1.3.1 (9b9bdc1480, 2023-11-25, custom)"
   sodipodi:docname="Battleship.svg"
   xmlns:inkscape="http://www.inkscape.org/namespaces/inkscape"
   xmlns:sodipodi="http://sodipodi.sourceforge.net/DTD/sodipodi-0.dtd"
   xmlns="http://www.w3.org/2000/svg"
   xmlns:svg="http://www.w3.org/2000/svg"><sodipodi:namedview
     id="namedview1"
     pagecolor="#ffffff"
     bordercolor="#000000"
     borderopacity="0.25"
     inkscape:showpageshadow="2"
     inkscape:pageopacity="0.0"
     inkscape:pagecheckerboard="0"
     inkscape:deskcolor="#d1d1d1"
     inkscape:document-units="mm"
     inkscape:zoom="2.7336534"
     inkscape:cx="102.06122"
     inkscape:cy="117.97399"
     inkscape:window-width="1920"
     inkscape:window-height="1043"
     inkscape:window-x="2560"
     inkscape:window-y="0"
     inkscape:window-maximized="1"
     inkscape:current-layer="layer1" /><defs
     id="defs1" /><g
     inkscape:label="Layer 1"
     inkscape:groupmode="layer"
     id="layer1"
     transform="translate(-92.062712,-105.43379)"><path
       style="fill:#000000"
       d="m 92.871088,115.8076 c -0.264293,-0.40018 -0.554297,-1.29315 -0.644454,-1.98438 l -0.163922,-1.25677 h 6.007124 c 5.784604,0 6.012254,-0.0196 6.145504,-0.52916 0.18453,-0.70564 0.61311,-0.67157 0.83203,0.0661 l 0.17666,0.59531 0.24884,-0.61231 c 0.25812,-0.63516 0.78247,-0.56898 0.78247,0.0988 0,0.83831 0.51187,0.31201 0.72284,-0.74322 0.22358,-1.11832 0.23128,-1.12455 1.40463,-1.13789 1.98246,-0.0225 2.37045,-0.10387 2.37045,-0.49685 0,-0.20789 -0.16129,-0.53927 -0.35843,-0.73641 -0.49221,-0.4922 -0.70683,-2.06062 -0.28198,-2.06062 0.19602,0 0.27104,0.21126 0.18791,0.52917 -0.11748,0.44922 -0.004,0.53232 0.75237,0.55005 0.48991,0.0115 0.74118,0.0812 0.55838,0.15489 -0.18281,0.0737 -0.26508,0.2429 -0.18283,0.37599 0.0823,0.13309 0.0235,0.24199 -0.13064,0.24199 -0.15411,0 -0.2802,0.12898 -0.2802,0.28663 0,0.15765 0.14883,0.23361 0.33073,0.16881 0.1819,-0.0648 0.78499,0.0604 1.34019,0.27818 0.81932,0.3214 1.06851,0.3321 1.32292,0.0568 0.24736,-0.26765 0.21989,-0.30638 -0.13022,-0.18366 -0.24402,0.0855 -0.57562,-0.003 -0.73689,-0.1978 -0.22615,-0.27249 -0.18851,-0.34453 0.16456,-0.315 0.31288,0.0262 0.60436,-0.33853 0.92093,-1.15233 0.331,-0.85087 0.46728,-1.01578 0.47756,-0.57792 0.008,0.33699 0.14574,0.85815 0.30629,1.15813 0.22388,0.41833 0.20898,0.59667 -0.0639,0.76534 -0.52107,0.32204 0.0851,0.83829 0.85403,0.72737 0.47711,-0.0688 0.70372,-0.37874 1.01726,-1.39122 0.31973,-1.03247 0.33364,-1.32594 0.0671,-1.41479 -0.258,-0.086 -0.2646,-0.19855 -0.0283,-0.48326 0.24278,-0.29254 0.2171,-0.37115 -0.12125,-0.37115 -0.38341,0 -0.3798,-0.0506 0.0337,-0.4738 0.34744,-0.35553 0.52907,-0.39615 0.7276,-0.16273 0.14553,0.17109 0.44318,0.3749 0.66146,0.45292 0.25651,0.0917 0.18633,0.14922 -0.19843,0.16272 -0.32743,0.0115 -0.59532,0.1598 -0.59532,0.32957 0,0.16978 0.0695,0.23923 0.15434,0.15434 0.0849,-0.0849 0.3986,0.0899 0.69713,0.38845 0.48967,0.48967 0.50046,0.56647 0.11024,0.78485 -0.5503,0.30796 -0.55782,0.90483 -0.014,1.1135 0.60706,0.23295 0.63982,0.21408 0.63982,-0.36857 0,-0.29398 0.17639,-0.52916 0.39688,-0.52916 0.22048,0 0.39687,0.23518 0.39687,0.52916 0,0.29104 0.11907,0.52917 0.26459,0.52917 0.14552,0 0.25048,-0.0893 0.23325,-0.19844 -0.10991,-0.69605 0.0431,-0.91495 0.42048,-0.60172 0.21403,0.17763 0.36286,0.57916 0.33073,0.89229 -0.0492,0.47911 0.10929,0.59029 0.99991,0.70162 0.90093,0.11262 1.04923,0.21932 0.99711,0.71741 -0.0426,0.4076 0.0514,0.54189 0.31006,0.44265 0.2042,-0.0784 0.63384,-0.002 0.95476,0.1698 0.45318,0.24253 0.62846,0.23951 0.78485,-0.0135 0.29257,-0.4734 0.78968,-0.0635 0.78968,0.65122 v 0.6134 l 5.75469,0.11692 c 3.16508,0.0643 5.95658,0.0667 6.20335,0.005 0.29272,-0.0728 0.48418,-0.44703 0.55084,-1.07667 0.0995,-0.93962 0.10334,-0.93489 0.14664,0.17934 l 0.0445,1.14443 1.52135,-0.0746 c 0.83675,-0.041 2.20597,-0.05 3.04271,-0.0199 1.79164,0.0643 1.98781,0.49004 0.7181,1.55842 -0.44179,0.37174 -0.98062,1.0189 -1.19742,1.43813 l -0.39416,0.76223 H 117.78835 93.351619 Z m 15.655032,-3.86578 c 0.089,-0.60648 -0.52286,-0.40264 -0.6424,0.21401 -0.0558,0.28769 0.0384,0.4283 0.24147,0.36061 0.18308,-0.061 0.3635,-0.31961 0.40093,-0.57462 z m -0.15411,-1.25985 c 0,-0.1277 -0.17859,-0.23218 -0.39688,-0.23218 -0.22811,0 -0.39687,0.23878 -0.39687,0.56156 0,0.46917 0.0653,0.50737 0.39687,0.23219 0.21829,-0.18116 0.39688,-0.43386 0.39688,-0.56157 z m 2.3592,0.12669 c 0.0606,-0.0519 0.0394,-0.16515 -0.0472,-0.25176 -0.22664,-0.22665 -1.7828,0.15432 -1.7828,0.43646 0,0.21056 1.5509,0.054 1.83003,-0.1847 z m 6.84759,-1.11388 c 0.26995,-0.17125 0.24498,-0.29751 -0.11693,-0.59127 -0.29685,-0.24094 -0.38966,-0.25613 -0.26149,-0.0428 0.10928,0.1819 0.0726,0.33073 -0.0815,0.33073 -0.1541,0 -0.28019,0.11907 -0.28019,0.26459 0,0.31894 0.27565,0.33337 0.74012,0.0387 z m 0.18592,-2.15541 c 0.0899,-0.14552 0.0374,-0.26458 -0.11668,-0.26458 -0.15411,0 -0.2802,0.11906 -0.2802,0.26458 0,0.14552 0.0525,0.26458 0.11668,0.26458 0.0642,0 0.19026,-0.11906 0.2802,-0.26458 z m 20.03742,3.96875 c 0,-0.50932 0.0545,-0.71768 0.121,-0.46302 0.0666,0.25466 0.0666,0.67138 0,0.92604 -0.0666,0.25466 -0.121,0.0463 -0.121,-0.46302 z"
       id="path1" /></g></svg>
