<?xml version="1.0" encoding="UTF-8" standalone="no"?>
<!-- Created with Inkscape (http://www.inkscape.org/) -->

<svg
   width="36.172897mm"
   height="8.6429415mm"
   viewBox="0 0 36.172897 8.6429415"
   version="1.1"
   id="svg1"
   xml:space="preserve"
   inkscape:version="1.3.1 (9b9bdc1480, 2023-11-25, custom)"
   sodipodi:docname="Cruiser.svg"
   xmlns:inkscape="http://www.inkscape.org/namespaces/inkscape"
   xmlns:sodipodi="http://sodipodi.sourceforge.net/DTD/sodipodi-0.dtd"
   xmlns="http://www.w3.org/2000/svg"
   xmlns:svg="http://www.w3.org/2000/svg"><sodipodi:namedview
     id="namedview1"
     pagecolor="#ffffff"
     bordercolor="#000000"
     borderopacity="0.25"
     inkscape:showpageshadow="2"
     inkscape:pageopacity="0.0"
     inkscape:pagecheckerboard="0"
     inkscape:deskcolor="#d1d1d1"
     inkscape:document-units="mm"
     inkscape:zoom="5.8246078"
     inkscape:cx="71.421118"
     inkscape:cy="14.335729"
     inkscape:window-width="2490"
     inkscape:window-height="1371"
     inkscape:window-x="70"
     inkscape:window-y="32"
     inkscape:window-maximized="1"
     inkscape:current-layer="layer1" /><defs
     id="defs1" /><g
     inkscape:label="Layer 1"
     inkscape:groupmode="layer"
     id="layer1"
     transform="translate(-74.898934,-164.98714)"><path
       style="fill:#000000"
       d="m 74.946891,173.0714 c -0.113213,-0.3567 -0.02401,-0.71198 0.246753,-0.98274 0.27617,-0.27617 0.424069,-0.31202 0.424069,-0.10279 0,0.1767 0.245152,0.32128 0.544782,0.32128 0.299629,0 0.471196,-0.11906 0.38126,-0.26458 -0.09732,-0.15746 0.217738,-0.26459 0.778135,-0.26459 0.666974,0 0.941656,0.11755 0.941656,0.40298 0,0.36064 0.06475,0.36055 0.616433,-9.3e-4 0.339039,-0.22215 0.722067,-0.31419 0.851174,-0.20454 0.129107,0.10965 0.07526,-0.009 -0.119664,-0.26365 -0.321273,-0.41974 -0.270991,-0.46224 0.53789,-0.45461 0.841892,0.008 0.863283,0.0304 0.378702,0.39688 -0.482353,0.36483 -0.455912,0.38846 0.434713,0.38846 0.606228,0 1.004218,-0.14571 1.103309,-0.40394 0.125785,-0.32779 0.519106,-0.38038 2.086521,-0.27899 1.906821,0.12335 2.792466,-0.0783 2.490449,-0.56693 -0.08521,-0.13788 -0.05117,-0.59768 0.07565,-1.02177 0.126823,-0.4241 0.240821,-0.62225 0.253329,-0.44035 0.01251,0.1819 0.208362,0.33073 0.435231,0.33073 0.22687,0 0.338906,-0.11907 0.248969,-0.26459 -0.08994,-0.14552 -0.03743,-0.26458 0.116677,-0.26458 0.154109,0 0.296412,-0.32742 0.316229,-0.7276 0.03142,-0.63447 0.05083,-0.65049 0.151632,-0.12514 0.06358,0.33136 0.255725,0.58047 0.426989,0.55358 0.576345,-0.0905 1.237431,0.35204 1.237431,0.82833 0,0.48717 0.670102,0.9014 1.064195,0.65783 0.12248,-0.0757 0.05287,-0.46303 -0.154685,-0.86075 -0.333481,-0.63901 -0.329225,-0.73349 0.03659,-0.81225 0.294579,-0.0634 0.401215,-0.36864 0.369755,-1.05833 -0.0753,-1.65086 -0.004,-2.15984 0.302491,-2.15984 0.169467,0 0.243484,0.27173 0.173599,0.63731 -0.08726,0.45647 -0.02094,0.59858 0.233739,0.50086 0.195562,-0.0751 0.355567,-0.005 0.355567,0.15644 0,0.16109 -0.119062,0.29289 -0.264583,0.29289 -0.145521,0 -0.264583,0.23813 -0.264583,0.52917 0,0.34997 0.176388,0.52917 0.520862,0.52917 0.355444,0 0.472253,0.12667 0.367803,0.39886 -0.08418,0.21938 -0.07505,0.81469 0.02029,1.32292 0.179118,0.95478 0.764943,1.24085 1.04524,0.51041 0.0873,-0.22751 0.272661,-0.34324 0.411908,-0.25718 0.139247,0.0861 0.382402,-0.085 0.540344,-0.3801 0.299052,-0.55879 1.85605,-0.78695 1.85605,-0.272 0,0.14552 0.293849,0.26459 0.652999,0.26459 0.617437,0 0.653531,-0.0829 0.662752,-1.52136 0.01564,-2.44024 0.01341,-2.42839 0.427848,-2.26935 0.282205,0.10829 0.34433,0.40562 0.231805,1.10943 -0.122812,0.76815 -0.09482,0.86838 0.139209,0.49846 0.161112,-0.25466 0.413104,-0.46302 0.559982,-0.46302 0.146875,0 0.199395,0.10947 0.116715,0.24326 -0.0827,0.13379 0.0502,0.44384 0.29541,0.689 0.3592,0.3592 0.38536,0.54245 0.13472,0.94378 -0.37066,0.59353 -0.40043,0.85628 -0.0742,0.65464 0.3112,-0.19234 0.556888,0.48084 0.556878,1.52586 v 0.83826 l 1.6242,-0.0323 c 1.13989,-0.0227 1.69017,-0.15019 1.84542,-0.42761 0.24538,-0.43848 1.55747,-0.32765 1.55747,0.13155 0,0.18019 0.97813,0.20951 2.91042,0.0872 1.8513,-0.11715 2.91041,-0.0897 2.91041,0.0754 0,0.14274 -0.44384,0.62539 -0.98632,1.07254 l -0.98633,0.81302 H 92.111718 75.124206 Z m 24.147081,-4.89285 c -0.08792,-0.0879 -0.316122,-0.0973 -0.507118,-0.0209 -0.211067,0.0845 -0.148372,0.14716 0.159852,0.15985 0.278915,0.0115 0.435185,-0.051 0.347266,-0.13896 z m -1.251259,-3.03076 c 0,-0.15411 0.119063,-0.20662 0.264584,-0.11668 0.145521,0.0899 0.264583,0.21602 0.264583,0.2802 0,0.0642 -0.119062,0.11667 -0.264583,0.11667 -0.145521,0 -0.264584,-0.12609 -0.264584,-0.28019 z"
       id="path2" /></g></svg>
